<?xml version="1.0" standalone="no"?>
<!DOCTYPE svg PUBLIC "-//W3C//DTD SVG 20010904//EN"
 "http://www.w3.org/TR/2001/REC-SVG-20010904/DTD/svg10.dtd">
<svg version="1.0" xmlns="http://www.w3.org/2000/svg"
 width="48.000000pt" height="48.000000pt" viewBox="0 0 48.000000 48.000000"
 preserveAspectRatio="xMidYMid meet">

<g transform="translate(0.000000,48.000000) scale(0.100000,-0.100000)"
fill="#000000" stroke="none">
<path d="M80 400 c-18 -18 -20 -33 -20 -160 0 -127 2 -142 20 -160 18 -18 33
-20 160 -20 187 0 180 -7 180 180 0 187 7 180 -180 180 -127 0 -142 -2 -160
-20z m298 -22 c33 -33 15 -38 -138 -38 -153 0 -171 5 -138 38 17 17 259 17
276 0z m12 -166 c0 -63 -4 -102 -12 -110 -17 -17 -259 -17 -276 0 -8 8 -12 47
-12 110 l0 98 150 0 150 0 0 -98z"/>
<path d="M168 263 c-22 -5 -24 -33 -3 -33 11 0 15 -12 15 -50 0 -38 4 -50 15
-50 12 0 15 14 15 70 0 72 -1 74 -42 63z"/>
<path d="M265 245 c-42 -41 -26 -115 25 -115 24 0 50 26 50 50 0 11 -10 28
-22 40 -12 11 -16 20 -10 20 7 0 12 7 12 15 0 23 -28 18 -55 -10z m41 -56 c10
-17 -13 -36 -27 -22 -12 12 -4 33 11 33 5 0 12 -5 16 -11z"/>
</g>
</svg>
