<svg width="20" height="18" viewBox="0 0 20 18" fill="none" xmlns="http://www.w3.org/2000/svg">
<path d="M4.49919 3.65202C5.86905 2.46095 7.58922 1.74787 9.39999 1.62042V3.40002C9.39999 3.55915 9.46321 3.71177 9.57573 3.82429C9.68825 3.93681 9.84086 4.00002 9.99999 4.00002C10.1591 4.00002 10.3117 3.93681 10.4243 3.82429C10.5368 3.71177 10.6 3.55915 10.6 3.40002V1.62162C12.512 1.7587 14.3196 2.54532 15.7231 3.85099C17.1265 5.15666 18.0414 6.9029 18.316 8.80002H16C15.8409 8.80002 15.6883 8.86324 15.5757 8.97576C15.4632 9.08828 15.4 9.24089 15.4 9.40002C15.4 9.55915 15.4632 9.71177 15.5757 9.82429C15.6883 9.93681 15.8409 10 16 10H18.4C18.3985 11.1595 18.1628 12.3068 17.7068 13.3729C17.2509 14.439 16.5842 15.402 15.7468 16.204C15.6365 16.3144 15.5736 16.4635 15.5714 16.6195C15.5691 16.7756 15.6278 16.9263 15.7349 17.0398C15.842 17.1533 15.9891 17.2206 16.145 17.2275C16.3009 17.2343 16.4534 17.1801 16.57 17.0764C17.5264 16.1624 18.2878 15.0642 18.8086 13.848C19.3293 12.6319 19.5985 11.323 19.6 10C19.6 7.45395 18.5886 5.01215 16.7882 3.2118C14.9879 1.41145 12.5461 0.400024 9.99999 0.400024C7.45392 0.400024 5.01212 1.41145 3.21177 3.2118C1.41142 5.01215 0.399994 7.45395 0.399994 10C0.399994 12.754 1.62399 15.328 3.47559 17.0764C3.53296 17.1305 3.6004 17.1727 3.67408 17.2007C3.74776 17.2287 3.82623 17.2419 3.90501 17.2395C3.98379 17.2372 4.06134 17.2194 4.13323 17.187C4.20512 17.1547 4.26994 17.1086 4.32399 17.0512C4.37805 16.9939 4.42027 16.9264 4.44826 16.8527C4.47624 16.7791 4.48944 16.7006 4.4871 16.6218C4.48476 16.543 4.46693 16.4655 4.43462 16.3936C4.40231 16.3217 4.35616 16.2569 4.29879 16.2028C2.67399 14.668 1.59999 12.4036 1.59999 10H3.99999C4.15912 10 4.31174 9.93681 4.42426 9.82429C4.53678 9.71177 4.59999 9.55915 4.59999 9.40002C4.59999 9.24089 4.53678 9.08828 4.42426 8.97576C4.31174 8.86324 4.15912 8.80002 3.99999 8.80002H1.68399C1.91291 7.2074 2.5962 5.71457 3.65199 4.50042L5.37519 6.22482C5.48786 6.33749 5.64066 6.40078 5.79999 6.40078C5.95932 6.40078 6.11213 6.33749 6.22479 6.22482C6.33746 6.11216 6.40075 5.95935 6.40075 5.80002C6.40075 5.64069 6.33746 5.48789 6.22479 5.37522L4.49919 3.65202ZM14.1388 4.96842C14.2478 4.88182 14.3836 4.83584 14.5228 4.83837C14.6621 4.8409 14.7961 4.89177 14.9019 4.98228C15.0078 5.07279 15.0788 5.19729 15.1029 5.33445C15.127 5.4716 15.1026 5.61286 15.034 5.73402L14.902 5.96922C14.4194 6.82135 13.9338 7.67176 13.4452 8.52042C13.0546 9.19955 12.6585 9.87557 12.2572 10.5484C12.1068 10.8016 11.9532 11.0528 11.7964 11.302C11.6764 11.4904 11.5588 11.6692 11.4724 11.77C11.1624 12.1332 10.7209 12.3583 10.2449 12.3959C9.76893 12.4334 9.29753 12.2804 8.93439 11.9704C8.57126 11.6604 8.34614 11.2189 8.30856 10.7429C8.27097 10.267 8.42401 9.79556 8.73399 9.43242C8.82039 9.33162 8.97759 9.18642 9.14559 9.03882C9.32559 8.87922 9.55719 8.68362 9.81759 8.46402C10.3408 8.02722 10.996 7.49202 11.6344 6.97602C12.3958 6.36006 13.1599 5.74725 13.9264 5.13762L14.1388 4.96962V4.96842Z" fill="#1D2527"/>
</svg>
