<svg width="20" height="19" viewBox="0 0 20 19" fill="none" xmlns="http://www.w3.org/2000/svg">
<path d="M11.2 10C11.8365 10 12.447 10.2529 12.897 10.703C13.3471 11.1531 13.6 11.7635 13.6 12.4V14.2C13.6 16.6648 11.0944 18.4 6.99999 18.4C2.90559 18.4 0.399994 16.6648 0.399994 14.2V12.4C0.399994 11.7635 0.65285 11.1531 1.10294 10.703C1.55302 10.2529 2.16347 10 2.79999 10H11.2ZM11.2 11.2H2.79999C2.48173 11.2 2.17651 11.3265 1.95147 11.5515C1.72642 11.7765 1.59999 12.0818 1.59999 12.4V14.2C1.59999 15.8884 3.49479 17.2 6.99999 17.2C10.5052 17.2 12.4 15.8884 12.4 14.2V12.4C12.4 12.0818 12.2736 11.7765 12.0485 11.5515C11.8235 11.3265 11.5183 11.2 11.2 11.2ZM17.2 10C17.8365 10 18.447 10.2529 18.897 10.703C19.3471 11.1531 19.6 11.7635 19.6 12.4V13C19.6 15.5068 17.7184 17.2 14.2 17.2C14.0308 17.2 13.864 17.1964 13.7032 17.188C13.9497 16.9025 14.16 16.5877 14.3296 16.2508L14.446 15.9952H14.4928C17.1712 15.9172 18.4 14.752 18.4 13V12.4C18.4 12.0818 18.2736 11.7765 18.0485 11.5515C17.8235 11.3265 17.5183 11.2 17.2 11.2H14.5948C14.4378 10.7574 14.1956 10.3497 13.882 10H17.2ZM6.99999 0.400024C7.55155 0.400024 8.0977 0.508661 8.60726 0.71973C9.11683 0.9308 9.57984 1.24017 9.96984 1.63018C10.3598 2.02018 10.6692 2.48319 10.8803 2.99275C11.0914 3.50232 11.2 4.04847 11.2 4.60003C11.2 5.15158 11.0914 5.69773 10.8803 6.2073C10.6692 6.71686 10.3598 7.17987 9.96984 7.56987C9.57984 7.95988 9.11683 8.26925 8.60726 8.48032C8.0977 8.69139 7.55155 8.80003 6.99999 8.80003C5.88608 8.80003 4.8178 8.35753 4.03015 7.56987C3.24249 6.78222 2.79999 5.71393 2.79999 4.60003C2.79999 3.48612 3.24249 2.41783 4.03015 1.63018C4.8178 0.842523 5.88608 0.400024 6.99999 0.400024ZM15.4 2.80002C16.1956 2.80002 16.9587 3.1161 17.5213 3.6787C18.0839 4.24131 18.4 5.00438 18.4 5.80002C18.4 6.59567 18.0839 7.35874 17.5213 7.92135C16.9587 8.48396 16.1956 8.80003 15.4 8.80003C14.6043 8.80003 13.8413 8.48396 13.2787 7.92135C12.7161 7.35874 12.4 6.59567 12.4 5.80002C12.4 5.00438 12.7161 4.24131 13.2787 3.6787C13.8413 3.1161 14.6043 2.80002 15.4 2.80002ZM6.99999 1.60002C6.20434 1.60002 5.44128 1.9161 4.87867 2.4787C4.31606 3.04131 3.99999 3.80438 3.99999 4.60003C3.99999 5.39567 4.31606 6.15874 4.87867 6.72135C5.44128 7.28396 6.20434 7.60003 6.99999 7.60003C7.79564 7.60003 8.5587 7.28396 9.12131 6.72135C9.68392 6.15874 9.99999 5.39567 9.99999 4.60003C9.99999 3.80438 9.68392 3.04131 9.12131 2.4787C8.5587 1.9161 7.79564 1.60002 6.99999 1.60002ZM15.4 4.00002C14.9226 4.00002 14.4648 4.18967 14.1272 4.52723C13.7896 4.8648 13.6 5.32264 13.6 5.80002C13.6 6.27741 13.7896 6.73525 14.1272 7.07282C14.4648 7.41038 14.9226 7.60003 15.4 7.60003C15.8774 7.60003 16.3352 7.41038 16.6728 7.07282C17.0104 6.73525 17.2 6.27741 17.2 5.80002C17.2 5.32264 17.0104 4.8648 16.6728 4.52723C16.3352 4.18967 15.8774 4.00002 15.4 4.00002Z" fill="#1D2527"/>
</svg>
